<?xml version="1.0" encoding="UTF-8"?>
<svg id="Layer_1" xmlns="http://www.w3.org/2000/svg" viewBox="0 0 1080 1080">
  <defs>
    <style>
      .cls-1 {
        fill: #f4f4f4;
      }
    </style>
  </defs>
  <path class="cls-1" d="M743.94,0h-285.24L5.68,540l453.02,540h285.24l-453.02-540L743.94,0ZM654.12,1058.61h-85L133.86,540,569.12,21.39h85L218.86,540l435.27,518.61Z"/>
  <polygon class="cls-1" points="601.47 455.25 530.36 540 601.47 624.75 672.57 540 601.47 455.25"/>
  <polygon class="cls-1" points="928.94 777.15 926.43 777.15 841.43 777.15 767.32 777.15 713.07 777.15 601.47 910.18 637.35 952.95 763.85 802.23 820.38 802.23 848.86 802.23 850.11 802.23 811.08 847.24 679.84 1003.6 720.17 1051.67 720.17 1051.67 743.93 1080 744.24 1080 998.31 777.15 928.94 777.15"/>
  <polygon class="cls-1" points="928.94 302.85 926.43 302.85 841.43 302.85 767.32 302.85 713.07 302.85 601.47 169.82 637.35 127.05 763.85 277.77 820.38 277.77 848.86 277.77 850.11 277.77 811.08 232.76 679.84 76.4 720.17 28.33 720.17 28.33 743.93 0 744.24 0 998.31 302.85 928.94 302.85"/>
</svg>