<?xml version="1.0" encoding="UTF-8"?>
<svg id="Layer_1" xmlns="http://www.w3.org/2000/svg" viewBox="0 0 1080 1080">
  <defs>
    <style>
      .cls-1 {
        fill: #161616;
      }
    </style>
  </defs>
  <path class="cls-1" d="M738.26,0h-285.24L0,540l453.02,540h285.24l-453.02-540L738.26,0ZM648.44,1058.61h-85L128.18,540,563.44,21.39h85L213.18,540l435.27,518.61Z"/>
  <polygon class="cls-1" points="595.78 455.25 524.68 540 595.78 624.75 666.89 540 595.78 455.25"/>
  <polygon class="cls-1" points="923.26 777.15 920.75 777.15 835.75 777.15 761.64 777.15 707.39 777.15 595.78 910.18 631.67 952.95 758.17 802.23 814.7 802.23 843.17 802.23 844.43 802.23 805.4 847.24 674.16 1003.6 714.48 1051.67 714.48 1051.67 738.25 1080 738.56 1080 992.63 777.15 923.26 777.15"/>
  <polygon class="cls-1" points="923.26 302.85 920.75 302.85 835.75 302.85 761.64 302.85 707.39 302.85 595.78 169.82 631.67 127.05 758.17 277.77 814.7 277.77 843.17 277.77 844.43 277.77 805.4 232.76 674.16 76.4 714.48 28.33 714.48 28.33 738.25 0 738.56 0 992.63 302.85 923.26 302.85"/>
</svg>